# xmcd
#
# Track frame offsets: 
#        150
#        10720
#        23085
#        35415
#        46785
#        58037
#        69287
#        79420
#        89907
#        100450
#        115160
#        127885
#        139920
#        151747
#        163367
#
# Disc length: 2331 seconds
#
# Revision: 8
# Processed by: cddbd v1.5.2PL0 Copyright (c) Steve Scherf et al.
# Submitted via: ExactAudioCopy v0.99pb5
#
DISCID=c309190f
DTITLE=Various Artist - Classic Country - TL 626-12 - '60s Legends - CD 2
DYEAR=2000
DGENRE=Country
TTITLE0=Roger Miller - Engine engine No. 9
TTITLE1=Johnny Cash - Understand your man
TTITLE2=Jeanne Black - He'll have to stay
TTITLE3=Dave Dudley - Cowboy boots
TTITLE4=Floyd Cramer - Last date
TTITLE5="Little" Jimmy Dickens - May the bird of paradise fly up your 
TTITLE5=nose
TTITLE6=Eddy Arnold - The last word in lonesome is me
TTITLE7=Connie Smith - Once a day
TTITLE8=Buck Owens - Only you (can break my heart)
TTITLE9=Johnny Horton - Sink the Bismark
TTITLE10=Walter Brennan - Old rivers
TTITLE11=Sonny James - Only the lonely (know the way I feel)
TTITLE12=Roy Drusky and Priscilla Mitchell - Yes Mr. Peters
TTITLE13=Glen Campbell - Dreams of the everyday housewife
TTITLE14=Jim Reeves - Adios amigo
EXTD=
EXTT0=
EXTT1=
EXTT2=
EXTT3=
EXTT4=
EXTT5=
EXTT6=
EXTT7=
EXTT8=
EXTT9=
EXTT10=
EXTT11=
EXTT12=
EXTT13=
EXTT14=
PLAYORDER=
